PathFileType  4	(X/Y/Z) C:\Users\antoi\Documents\MyRepositories\mobilecap\ResultsAnalysis
DataRate	CameraRate	NumFrames	NumMarkers	Units	OrigDataRate	OrigDataStartFrame	OrigNumFrames
100.0	100.0	4	51	mm	100.0	129	256
Frame#	Time	r_knee			r_shank_antsup			r_ankle			r_calc			r_5meta			r_toe			L_knee			L_shank_antsup			L_ankle			L_calc			L_5meta			L_toe			r_sh2			r_sh3			r_sh4			L_sh2			L_sh3			r_thigh1			r_thigh2			r_thigh3			r_thigh4			r_thigh5			L_thigh1			L_thigh2			L_thigh3			L_thigh4			r.ASIS			r.PSIS			L.ASIS			L.PSIS			C7			R_Shoulder			L_Shoulder			R_Sternum			L_Sternum			R_humerus			R_elbow_med			R_elbow_lat			R_forearm			R_wrist_radius			R_wrist_ulna			L_humerus			L_elbow_med			L_elbow_lat			L_forearm			L_wrist_radius			L_wrist_ulna			R_HJC			L_HJC			R_HJC_reg			L_HJC_reg			
		X1	Y1	Z1	X2	Y2	Z2	X3	Y3	Z3	X4	Y4	Z4	X5	Y5	Z5	X6	Y6	Z6	X7	Y7	Z7	X8	Y8	Z8	X9	Y9	Z9	X10	Y10	Z10	X11	Y11	Z11	X12	Y12	Z12	X13	Y13	Z13	X14	Y14	Z14	X15	Y15	Z15	X16	Y16	Z16	X17	Y17	Z17	X18	Y18	Z18	X19	Y19	Z19	X20	Y20	Z20	X21	Y21	Z21	X22	Y22	Z22	X23	Y23	Z23	X24	Y24	Z24	X25	Y25	Z25	X26	Y26	Z26	X27	Y27	Z27	X28	Y28	Z28	X29	Y29	Z29	X30	Y30	Z30	X31	Y31	Z31	X32	Y32	Z32	X33	Y33	Z33	X34	Y34	Z34	X35	Y35	Z35	X36	Y36	Z36	X37	Y37	Z37	X38	Y38	Z38	X39	Y39	Z39	X40	Y40	Z40	X41	Y41	Z41	X42	Y42	Z42	X43	Y43	Z43	X44	Y44	Z44	X45	Y45	Z45	X46	Y46	Z46	X47	Y47	Z47	X48	Y48	Z48	X49	Y49	Z49	X50	Y50	Z50	X51	Y51	Z51	

129	1.28000000	-337.40099	615.55030	-379.57918	-274.35243	534.82662	-373.39214	-281.26501	209.45949	-354.62100	-337.54764	205.55645	-410.90805	-192.76242	94.72850	-324.10734	-144.09171	119.05610	-365.87397	-330.23804	617.79679	-760.43207	-262.40273	550.45376	-758.76345	-242.53188	213.90441	-776.64289	-310.49280	194.20231	-717.12901	-154.00583	108.39212	-800.65924	-97.24190	130.21779	-756.06831	-254.67990	423.20053	-362.35125	-343.01165	523.71949	-341.31607	-328.18977	411.06906	-328.49384	-348.67225	545.36425	-790.09414	-322.93018	425.72860	-803.26368	-414.30657	887.31331	-387.30780	-357.75730	792.57921	-387.38289	-394.02640	743.65079	-357.59570	-510.46888	827.81002	-377.98689	-444.56504	730.76465	-380.69509	-371.73005	871.89521	-748.98166	-301.12835	751.12832	-740.64247	-461.80352	819.11830	-785.42445	-394.61049	704.40252	-770.16808	-427.54334	1045.21229	-452.42285	-617.70283	1092.19287	-535.04232	-421.89321	1056.40146	-695.65126	-611.30507	1095.34950	-625.86717	-464.62502	1534.75277	-547.57330	-408.37643	1525.27064	-416.50513	-395.65181	1528.16151	-666.14248	-353.78946	1440.65576	-517.84190	-349.29871	1444.03845	-563.78582	-346.07115	1479.91484	-320.27531	-348.75012	1318.59404	-167.72497	-340.57994	1381.49838	-133.57393	-247.56694	1392.20002	-153.68841	-98.28909	1346.18405	-210.91871	-98.23924	1329.89314	-165.09581	-339.93323	1494.32401	-780.64758	-353.35657	1374.98742	-959.75111	-334.56773	1453.48909	-974.45587	-255.80673	1445.07063	-980.22405	-103.20451	1368.02577	-1020.27030	-121.61674	1391.59346	-1062.45648	-510.16827	963.39974	-479.64059	-502.41042	972.45982	-668.82753	-504.39289	978.52879	-494.22205	-493.10415	984.09943	-654.47055	
130	1.29000000	-315.63077	594.27384	-379.87516	-254.62514	512.28606	-373.90215	-266.31513	187.47883	-353.23003	-324.78826	187.19615	-408.23797	-183.62955	68.00174	-325.42988	-135.09660	89.47623	-368.68453	-308.48656	595.94276	-760.46311	-241.58280	526.87198	-758.23057	-230.48755	190.46485	-775.74538	-299.78086	172.71124	-717.67997	-145.14581	81.58303	-799.21946	-88.68474	100.66744	-753.21383	-237.47742	400.30392	-362.34120	-323.45593	502.91374	-341.51560	-311.43695	390.46017	-328.37035	-327.88720	524.14432	-790.19850	-305.81065	404.14266	-803.18482	-400.72105	863.71593	-387.00519	-340.30950	771.17211	-388.17396	-376.12105	720.41636	-358.31321	-495.09749	801.70968	-377.58760	-426.65259	706.48484	-380.36043	-356.23388	848.81910	-749.05679	-282.84458	730.00610	-740.89626	-445.34168	793.88759	-784.87945	-375.33187	680.81481	-769.92909	-415.62557	1019.72869	-452.34784	-605.87927	1064.86699	-535.25872	-409.56813	1030.56172	-695.65487	-598.94862	1067.61209	-626.11981	-453.63322	1508.22143	-547.39001	-397.95458	1501.40734	-418.55815	-384.45374	1504.38310	-663.84844	-342.02487	1415.22349	-518.02759	-337.05625	1418.92282	-563.31685	-338.78960	1458.93893	-319.34656	-347.90969	1302.72514	-161.91765	-341.03949	1366.65222	-129.14658	-247.71551	1378.06521	-147.55683	-97.73528	1333.61748	-202.82108	-97.78936	1317.78401	-156.92029	-332.51241	1474.42514	-780.68353	-357.11543	1363.56010	-964.80878	-336.46764	1441.82431	-976.77250	-258.15437	1432.32651	-985.23254	-107.83323	1354.13386	-1029.97131	-126.81066	1378.84690	-1071.19259	-497.22171	937.08814	-479.50980	-489.20916	945.85193	-668.70035	-492.13492	952.63968	-494.26855	-479.91156	957.48171	-654.51819	
131	1.30000000	-294.36400	571.74427	-380.75036	-234.39552	488.73352	-374.77966	-256.17793	165.75521	-353.61636	-317.99089	169.58898	-408.12877	-178.27534	47.93051	-326.70974	-129.67956	66.70468	-372.26352	-285.34783	573.69738	-759.62975	-220.35880	502.60042	-757.52733	-219.59608	166.72802	-774.12801	-291.21455	153.05345	-717.32344	-138.90026	56.74386	-797.30758	-82.28083	72.69671	-749.02641	-219.09901	376.08740	-363.34588	-303.07232	480.46069	-341.42128	-293.12378	368.10157	-327.92427	-306.62021	502.07529	-789.43121	-288.51865	381.77770	-802.65087	-386.96320	838.88044	-386.73387	-323.85056	748.15860	-388.97069	-357.90108	695.64707	-358.89193	-479.56945	774.49077	-376.55072	-408.91823	681.23262	-379.07820	-340.99497	824.79697	-748.75345	-264.09005	707.88891	-739.94339	-428.34396	767.51523	-784.91510	-355.26384	656.12127	-769.51505	-403.48719	993.34090	-452.10318	-593.99331	1036.39786	-535.41458	-397.02070	1003.53438	-695.33689	-586.58175	1038.74892	-625.96214	-442.41145	1480.67393	-547.53426	-387.20830	1476.18409	-420.94092	-373.17124	1479.36584	-661.63306	-329.73550	1388.95818	-517.77419	-324.54012	1392.73423	-563.14742	-331.62949	1436.60628	-319.08769	-348.68971	1285.72853	-156.80560	-343.13513	1350.70897	-125.33293	-249.39208	1362.39764	-141.69664	-98.39850	1318.94627	-193.88391	-98.95331	1303.64542	-147.86797	-325.13382	1453.37033	-780.42599	-361.51423	1351.31367	-968.77405	-338.87576	1429.41056	-978.23856	-261.25802	1418.56242	-989.45513	-113.82995	1338.82821	-1039.53484	-133.17153	1364.85318	-1079.55126	-484.07454	909.79587	-479.03152	-475.82511	918.08434	-668.23259	-479.55731	925.63649	-494.11175	-466.44944	929.79393	-654.25322	
132	1.31000000	-273.21240	549.09504	-380.83899	-213.33698	464.44567	-374.78997	-262.91025	145.80317	-357.85279	-327.09152	147.08609	-411.17135	-180.20981	39.92422	-327.49258	-132.18221	59.39064	-374.84365	-261.91419	550.72350	-759.00947	-198.07820	477.41925	-756.91916	-216.54270	144.13080	-770.01729	-291.67508	130.73224	-714.25277	-137.12065	41.79060	-795.37155	-80.22513	56.64624	-744.72287	-202.74080	350.85129	-366.03853	-281.10599	457.82089	-339.62726	-276.06615	344.91343	-328.22141	-284.39727	479.51260	-788.05956	-270.55730	359.06867	-802.82503	-372.98323	813.29484	-386.31970	-307.50793	724.23583	-388.83267	-339.30383	670.51400	-358.62947	-463.78907	746.14572	-375.38751	-390.69527	655.34045	-377.77753	-326.32969	799.69646	-748.14712	-245.29715	685.10798	-738.66532	-411.26274	739.71594	-785.13151	-334.59633	630.61230	-769.35510	-391.64478	965.77974	-451.88915	-582.85475	1007.37608	-535.40165	-384.51247	975.01662	-694.74704	-575.41595	1009.62234	-625.99750	-431.10923	1452.45439	-547.92856	-376.15698	1450.05687	-423.16610	-361.39811	1453.49503	-659.74946	-317.21641	1361.71891	-517.44063	-311.91546	1365.61649	-563.16976	-324.72886	1413.01825	-318.99495	-350.81395	1267.56248	-152.43319	-346.72253	1333.54433	-122.51457	-252.53178	1345.15707	-136.25474	-100.21066	1302.06326	-184.10562	-101.70682	1287.41151	-137.96053	-317.61484	1431.19915	-780.22447	-366.50920	1338.29930	-971.69475	-341.89659	1415.92021	-978.46616	-264.98146	1403.61662	-992.80294	-121.09607	1322.06112	-1048.84024	-140.76522	1349.43499	-1087.73831	-471.93854	881.66153	-478.42499	-463.37082	889.31957	-667.63824	-467.03975	897.31647	-493.75760	-453.90530	901.27397	-653.63996	
